<svg id='56a-5pWZ-6edae946-e7d7-4633-a682-2eb3621469eb' preserveAspectRatio="none" width="400" height="241" viewBox="0 0 400 241" xmlns="http://www.w3.org/2000/svg"><g id="Page-1" fill="none" fill-rule="evenodd"><g id="Artboard"><g id="Group" transform="translate(138 80)"><ellipse id="Oval-10" fill="#34495E" cx="137.111" cy="21.122" rx="1.972" ry="1.304"/><path d="M106.418 3.727c-1.41.927-3.363 1.982-4.776 3.176-1.207 1.02-2.145 3.125-3.305 4.246-.515.498-1 2.792-1.473 3.297-.515.55.735-1.682-.582 2.627-.572 1.87-.83 4.164-.293 5.824.698 2.165 2.347 3.462 2.347 3.462s3.665 2.138 4.567 2.138c2.692 0 7.314 1.48 10.236 1.3 4.172-.256 8.334-.254 11.576-.973 1.135-.252 4.595-1.327 5.398-2.938.648-1.3 2.555-3.498 1.95-4.912-.452-1.054-.635-5.23-1.1-5.912-.733-1.07-2.132-4.435-4.46-7.138-1.732-2.01-4.585-3.598-4.828-3.904-.41-.51-2.423-1.316-4.396-1.713-1.247-.25-2.405-.176-3.364-.28-1.74-.187-5.812.59-7.498 1.7z" id="Path-4" fill="#DDDEE1"/><path d="M113.445 27.62c-.273-.03-.527-.295-.803-.345-1.013-.182-1.547-.367-2.82-1.21-.774-.512-1.28-1.646-1.552-2.535-.176-.576-.248-1.105-.248-1.105s5.034.267 8.044.29c.572.004 2.802-.123 2.802-.123s-.064 1.312-.59 2.413c-.398.83-1.2 1.415-1.63 1.94-.344.416-1.813.553-1.813.553s-.66.205-1.39.123z" id="Path-10" fill="#E84F44"/><path d="M109.756 23.44c-.205-.074-.635-.067-.812-.17-.08-.046-.418.12-.643 0-.225-.12-.114-.364-.163-.404-.3-.246.08-.44.08-.44s2.443.164 3.665.17c2.32.014 6.986-.17 6.986-.17s.003.677-.203.844c-.192.156-.79-.14-1.122 0-.514.22-.488.33-1.38.418-.235.023-.904-.28-1.417-.248-.207.013-.572.224-.79.248-.248.028-.69-.212-.923-.186-.23.025-.716.142-.9.186-.593.143-.492-.13-1.05-.186-.156-.015-.982.063-1.327-.062z" id="Path-9" fill="#E88B7C"/><path d="M113.445 27.595c-5.114-.61-5.423-5.17-5.423-5.17s1.976.27 5.423.27 5.423-.27 5.423-.27-.31 5.78-5.423 5.17z" id="Triangle-3" stroke="#34495E" stroke-linecap="round" stroke-linejoin="round"/><path d="M132.06 20.584c-.426-.57.354-1.667-.273-2.302-.535-.54.15-1.522-.528-2.023-.738-.546-.005-1.58-.732-1.648-1.908-.18-1.065 2.277-1.69 2.83-.37.327-1.615.827-1.615 1.268 0 1.293-1.325 2.32-1.646 2.563-.59.448-.825 2.68-1.527 3.057-.785.422-3.62 2.145-4.487 2.435-.354.12-3.596 1.412-5.785 1.654-3.106.342-8.105.153-8.768.248-2.18.314 4.136 1.17 10.385 1.145 3.96-.017 7.29-.25 9.74-1.015 1.69-.53 2.965-1.108 3.883-1.703.344-.223 2.77-3.437 2.77-3.437s.656-2.56.272-3.074z" id="Path-7" fill="#C9C9C9"/><ellipse id="Oval-1" fill="#34495E" cx="105.31" cy="11.343" rx=".74" ry=".652"/><ellipse id="Oval-1" fill="#34495E" cx="123.059" cy="11.778" rx=".74" ry=".652"/><path d="M104.95 6.084a12.87 12.87 0 0 0-2.47 2.405c-1.36 1.764-2.363 4.156-2.84 4.647-1.793 1.84-1.972 1.426-1.972 1.426s.59-1.69 1.514-3.24c.808-1.358 1.927-2.573 2.362-2.93.555-.453 1.903-1.947 3.082-2.684.788-.494 2.683-1.636 3.467-1.912.513-.18 2.31-.794 1.815-.316-.162.156-1.19.363-2.12.885-.652.364-1.85.987-2.837 1.717z" id="Path-11" fill="#F6F6F6"/><path d="M121.334 29.38s.096-.103.986 1.697.986 5.255.986 5.255M109.42 29.898s.215-.208-.345 1.57c-.56 1.78.316 4.432.316 4.432" id="Line" stroke="#34495E" stroke-linecap="round" stroke-linejoin="round"/><path d="M107.775 36.58c1.327 0 2.22-.148 2.22-.538s-.63-.648-1.958-.648c-1.328 0-2.504.532-2.504.922s.915.264 2.242.264z" id="Oval-5" fill="#34495E"/><path d="M125.192 37.188c.414 0 1 .056 1.336-.064.288-.103.322-.406 0-.667-.32-.26-.6-.3-1.336-.42-.862-.137-1.437-.173-1.97-.11-.4.048-.41.308-.41.438 0 .303 1.61.823 2.38.823z" id="Oval-6" fill="#34495E"/><path d="M130.635 15.42s1.503 3.027 2.378 4.22c.517.702 2.18 1.5 2.18 1.5M96.19 17.21s-1.288 2.63-2.146 3.73c-.96 1.232-2.293 1.485-2.293 1.485" id="Line" stroke="#34495E" stroke-linecap="round" stroke-linejoin="round"/><ellipse id="Oval-11" fill="#34495E" cx="91.258" cy="22.208" rx="1.972" ry="1.086"/><path d="M113.603 29.793c19.03.462 19.19-7.25 17.324-13.396C129.06 10.252 123.17 2 113.603 2 104.035 2 97.71 9.79 96.28 16.397c-1.432 6.607-1.706 12.935 17.323 13.396z" id="Oval-14" stroke="#34495E"/><ellipse id="Oval" stroke="#979797" cx="14.545" cy="7.171" rx="1.233" ry="1.086"/><ellipse id="Oval" stroke="#979797" cx="33.28" cy="6.301" rx="1.233" ry="1.086"/><path d="M17.132 1.727c-1.41.927-3.363 1.982-4.776 3.176C11.15 5.923 10.21 8.028 9.05 9.15c-.514.498-1 2.792-1.472 3.297-.515.55.735-1.682-.582 2.627-.572 1.87-.83 4.164-.293 5.824.7 2.165 2.348 3.462 2.348 3.462s3.666 2.138 4.568 2.138c2.692 0 7.314 1.48 10.236 1.3 4.172-.256 8.334-.254 11.576-.973 1.135-.252 4.595-1.327 5.398-2.938.648-1.3 2.555-3.498 1.95-4.912-.452-1.054-.635-5.23-1.1-5.912-.733-1.07-2.132-4.435-4.46-7.138-1.732-2.01-4.585-3.598-4.828-3.904-.41-.51-2.423-1.316-4.396-1.713C26.747.057 25.59.13 24.63.027c-1.74-.187-5.812.59-7.498 1.7z" id="Path-4" fill-opacity=".9" fill="#A6D488"/><path d="M26.13 25.186c-.272-.03-.525-.296-.8-.345-1.015-.18-1.55-.367-2.823-1.21-.772-.512-1.28-1.646-1.55-2.535-.177-.576-.25-1.104-.25-1.104s5.035.268 8.045.29c.572.004 2.803-.123 2.803-.123s-.065 1.312-.592 2.414c-.397.83-1.2 1.416-1.63 1.94-.343.416-1.812.553-1.812.553s-.66.205-1.39.123z" id="Path-10" fill="#E84F44"/><path d="M22.443 21.006c-.206-.075-.636-.068-.812-.17-.08-.047-.418.12-.643 0-.226-.12-.115-.365-.164-.405-.3-.244.08-.44.08-.44s2.443.165 3.665.172c2.32.014 6.987-.17 6.987-.17s.002.677-.204.844c-.19.155-.79-.142-1.12 0-.515.22-.49.33-1.38.418-.236.023-.905-.28-1.418-.248-.207.012-.572.223-.79.248-.248.028-.69-.212-.923-.187-.23.026-.717.142-.9.187-.594.143-.493-.132-1.05-.187-.156-.015-.983.063-1.327-.06z" id="Path-9" fill="#E88B7C"/><path d="M26.13 25.16c-5.113-.608-5.422-5.17-5.422-5.17s1.976.27 5.423.27c3.448 0 5.425-.27 5.425-.27s-.31 5.78-5.424 5.17z" id="Triangle-3" stroke="#34495E" stroke-linecap="round" stroke-linejoin="round"/><path d="M42.774 18.584c-.426-.57.354-1.667-.273-2.302-.534-.54.15-1.522-.527-2.023-.737-.546-.004-1.58-.73-1.648-1.91-.18-1.066 2.277-1.692 2.83-.368.327-1.613.827-1.613 1.268 0 1.293-1.325 2.32-1.646 2.563-.59.448-.824 2.68-1.526 3.057-.785.422-3.62 2.145-4.487 2.435-.354.12-3.596 1.412-5.785 1.654-3.106.342-8.105.153-8.768.248-2.18.314 4.136 1.17 10.385 1.145 3.958-.017 7.29-.25 9.738-1.015 1.69-.53 2.966-1.108 3.884-1.703.344-.223 2.77-3.437 2.77-3.437s.656-2.56.272-3.074z" id="Path-7" fill-opacity=".9" fill="#AAC56C"/><path d="M68.603 7.837c-.643.812-2.448 1.283-3.748 2.78-1.126 1.298-1.508 1.58-2.833 3.08-2.407 2.726-1.043 2.253-2.848 4.31-.317.363-1.03 2.162-1.03 2.162s-.67 1.67-.39 3.026c.23 1.115 1.42 1.94 1.42 2.133 0 .427 3.597 2.1 3.597 2.1s1.96 1.142 5.224 1.16c2.328.012 5.365.2 8.028 0 1.784-.135 3.92.05 5.58-.154.935-.115 3.09-.64 4.27-1.294 1.483-.82 1.903-1.805 1.81-1.945-.357-.538.568-2.3-.32-3.484-1.03-1.374-.956-4.546-2.623-6.196-.924-.913-1.94-4.79-3.14-5.453-1.158-.64-1.143-.708-2.05-1.556-.7-.656-2.08-.95-2.52-1.603-.517-.766-3.606-.82-3.606-.82s-4.357 1.165-4.82 1.752z" id="Path-6" fill="#FE899B"/><path d="M88.2 24.11c-.504-.86-.007-2.837-.933-3.846-1.14-1.24-.43-3-1.75-3.66-.354-.178-.226-1.427-.74-1.393-.807.054-.275 2.316-1.035 3.013-.492.45-.148 3.395-.17 3.654-.035.367-1.214 2.266-1.166 2.754.073.758-1.14.86-1.445 1.68-.214.582-1.605.097-1.877.656-1.19 2.443-4.238.317-4.87 1.003-.842.91-3.585-.336-4.89.135-2.097.76-2.763.517-2.763.517s1.744.117 3.012.384c1.412.297 4.348-.11 6.632 0 2.45.116 5.658-.493 7.538-.573 1.02-.043 3.382-1.467 3.382-1.467s1.42-2.268 1.076-2.855z" id="Path-8" fill="#EE8193"/><ellipse id="Oval-1" fill="#34495E" cx="19.475" cy="5.867" rx=".74" ry=".652"/><ellipse id="Oval-1" fill="#34495E" cx="29.829" cy="6.736" rx=".74" ry=".652"/><ellipse id="Oval-1" fill="#34495E" cx="69.272" cy="13.689" rx=".74" ry=".652"/><ellipse id="Oval-1" fill="#34495E" cx="77.161" cy="16.297" rx=".74" ry=".652"/><path d="M15.665 4.084a12.87 12.87 0 0 0-2.47 2.405c-1.362 1.764-2.364 4.156-2.842 4.647-1.792 1.84-1.97 1.426-1.97 1.426s.59-1.69 1.513-3.24c.808-1.358 1.927-2.573 2.362-2.93.555-.453 1.903-1.947 3.082-2.684.788-.494 2.683-1.636 3.467-1.912.513-.18 2.31-.794 1.815-.316-.162.156-1.19.363-2.12.885-.652.364-1.85.987-2.837 1.717z" id="Path-11" fill="#F6F6F6"/><path d="M65.595 12.148c-1.133 1.05-2.068 2.178-2.35 2.496-.532.597-2.004 2.62-2.667 3.332-1.073 1.15-1.19.787-.442-.256 1.21-1.69 2.36-3.314 3.287-4.305 1.514-1.62 3.23-3.147 4.675-4.22C69.665 8.03 70.593 7.413 70.9 7.39c.31-.026-.118.467-1.345 1.455-.695.56-2.477 1.93-3.96 3.303z" id="Path-12" fill="#F2DBDF"/><path d="M32.048 27.38s.096-.103.986 1.697.986 5.255.986 5.255M20.26 28.054s.215-.208-.345 1.57c-.56 1.78-2.095 4.104-2.095 4.104" id="Line" stroke="#34495E" stroke-linecap="round" stroke-linejoin="round"/><path d="M19.714 34.75c1.327 0 1.98.117 1.98-.273s-.89-1.005-2.22-1.005c-1.326 0-2.218-.09-2.218.3s1.13.978 2.458.978z" id="Oval-5" fill="#34495E"/><path d="M35.906 35.188c.414 0 1 .056 1.336-.064.288-.103.322-.406 0-.667-.32-.26-.6-.3-1.336-.42-.862-.137-1.437-.173-1.97-.11-.4.048-.41.308-.41.438 0 .303 1.61.823 2.38.823z" id="Oval-6" fill="#34495E"/><path d="M41.74 13.43s-.003.66 5.587 2.182c5.59 1.522 4.342 2.868 4.342 2.868M6.903 15.21s-1.287 2.63-2.145 3.73c-.96 1.232-2.293 1.485-2.293 1.485M69.026 28.682s.084 1.454.237 2.462c.187 1.223.75 3.56.75 3.56M72.107 28.682s-1.197 1.207-1.104 2c.176 1.503 2.953 3.215 2.953 3.215" id="Line" stroke="#34495E" stroke-linecap="round" stroke-linejoin="round"/><path d="M70.69 34.897c-.668-1.16-.678-.14-.678-.356 0-.215-.443 0-1.266 0-.824 0-1.2.39-1.2.607 0 .216 3.812.91 3.144-.25z" id="Oval-7" fill="#34495E"/><path d="M74.8 36.035c.435-.064.132-.763 0-.992-.133-.23-.292-1.146-.555-1.146-.264 0-.782.632-.782 1.146 0 .514.902 1.056 1.337.992z" id="Oval-8" fill="#34495E"/><path d="M59.165 17.818s-.65.677-3.45.434c-2.804-.242-3.453.435-3.453.435M83.053 19.146s4.043 2.586 4.17 3.754c.128 1.17-3.275 3.016-3.275 3.016" id="Line" stroke="#34495E" stroke-linecap="round" stroke-linejoin="round"/><ellipse id="Oval-9" fill="#34495E" cx="52.016" cy="18.47" rx=".74" ry=".652"/><ellipse id="Oval-10" fill="#34495E" cx="51.769" cy="18.252" rx="1.972" ry="1.304"/><ellipse id="Oval-11" fill="#34495E" cx="1.972" cy="20.208" rx="1.972" ry="1.086"/><ellipse id="Oval-12" fill="#34495E" cx="83.324" cy="25.64" rx="1.479" ry=".869"/><path d="M76.443 12.187c.277.044.625-.433.688-.833.065-.4-.15-.77-.427-.813-.277-.042-.608.338-.67.738-.064.4.133.865.41.91z" id="Oval-13" stroke="#34495E" fill="#FAA757"/><path d="M77.106 10.802s.07.49.007.71c-.06.202-.375.552-.375.552s.99.9 1.696 1.15c.706.25 1.21.218 1.583.004.374-.214.65-.554.19-1.02-.463-.467-2.987-.67-2.987-.67s2.8.222 3.107-.058c.308-.28.71-.897-.386-1.124-1.094-.227-2.834.456-2.834.456z" id="Path-21" stroke="#34495E" stroke-linecap="round" stroke-linejoin="round" fill="#31D2FF"/><path d="M75.513 9.73c.493.476.712 1.028.712 1.028s-.193.492-.205.68c-.012.193.105.468.105.468s-.075.232-1.057.342c-.982.11-1.693.045-1.998 0-.555-.08-.842-.54-.787-.907.018-.122.216-.63.763-.627 1.08.002 2.88.632 2.88.632s-2.77-1.008-2.986-1.435c-.215-.427.214-1.005.91-1.064.357-.03 1.15.39 1.663.885z" id="Path-22" stroke="#34495E" stroke-linecap="round" stroke-linejoin="round" fill="#31D2FF"/><path d="M24.317 27.793c19.03.462 19.19-7.25 17.324-13.396C39.776 8.252 33.885 0 24.318 0 14.75 0 8.425 7.79 6.993 14.397c-1.43 6.607-1.705 12.935 17.324 13.396z" id="Oval-14" stroke="#34495E"/><path d="M69.58 28.595c.812.055 1.643.082 2.483.082 8.262 0 17.855.432 15.945-6.265-1.91-6.696-7.527-16.328-13.523-16.328-5.996 0-13.943 8.466-15.966 14.22-1.817 5.167 3.89 7.807 11.06 8.29z" id="Oval-15" stroke="#34495E"/><path d="M156.12 6.753c-.643.812-2.448 1.283-3.75 2.78-1.124 1.298-1.506 1.58-2.83 3.08-2.408 2.726-1.044 2.253-2.85 4.31-.317.363-1.03 2.162-1.03 2.162s-.67 1.67-.39 3.027c.232 1.114 1.42 1.94 1.42 2.132 0 .43 3.598 2.1 3.598 2.1s1.957 1.144 5.223 1.162c2.33.012 5.366.2 8.03 0 1.783-.135 3.92.05 5.578-.154.935-.116 3.09-.64 4.272-1.294 1.482-.822 1.902-1.805 1.81-1.945-.36-.538.567-2.3-.32-3.484-1.03-1.375-.958-4.547-2.624-6.197-.923-.914-1.938-4.79-3.138-5.453-1.16-.64-1.145-.708-2.052-1.556-.7-.656-2.08-.95-2.52-1.603-.516-.765-3.606-.82-3.606-.82s-4.356 1.165-4.82 1.753z" id="Path-6" fill-opacity=".9" fill="#AB82FF"/><path d="M175.717 23.027c-.505-.86-.007-2.838-.934-3.847-1.138-1.24-.43-3-1.748-3.66-.355-.178-.227-1.427-.742-1.393-.806.053-.274 2.315-1.034 3.012-.494.45-.15 3.394-.173 3.653-.033.367-1.212 2.266-1.165 2.754.074.756-1.14.858-1.444 1.68-.215.58-1.606.096-1.878.655-1.19 2.443-4.24.317-4.872 1.003-.84.91-3.583-.335-4.888.136-2.098.76-2.763.518-2.763.518s1.744.117 3.012.384c1.41.297 4.347-.11 6.63 0 2.45.116 5.66-.493 7.54-.573 1.02-.045 3.38-1.468 3.38-1.468s1.422-2.268 1.077-2.855z" id="Path-8" fill-opacity=".9" fill="#937AB1"/><ellipse id="Oval-1" fill="#34495E" cx="155.31" cy="13.04" rx=".74" ry=".652"/><ellipse id="Oval-1" fill="#34495E" cx="165.664" cy="14.343" rx=".74" ry=".652"/><path d="M153.11 11.063c-1.13 1.05-2.066 2.18-2.35 2.497-.53.597-2.002 2.62-2.665 3.332-1.074 1.15-1.19.787-.442-.257 1.21-1.688 2.36-3.313 3.287-4.304 1.513-1.618 3.23-3.146 4.674-4.22 1.568-1.163 2.495-1.78 2.804-1.805.31-.025-.12.468-1.346 1.456-.695.56-2.477 1.93-3.96 3.303z" id="Path-12" fill="#F2DBDF"/><path d="M157.528 27.598s.085 1.454.238 2.462c.186 1.223.75 3.56.75 3.56M161.596 28.033s.102 1.15.195 1.944c.177 1.502 1.655 3.27 1.655 3.27" id="Line" stroke="#34495E" stroke-linecap="round" stroke-linejoin="round"/><path d="M158.966 33.053c-1.16-.67-.658.218-.766.03-.108-.186-.383.222-1.096.634-.713.41-.844.937-.736 1.124.108.188 3.756-1.117 2.598-1.787z" id="Oval-7" fill="#34495E"/><path d="M164.29 34.95c.434-.063.13-.762 0-.99-.134-.23-.293-1.147-.557-1.147-.263 0-.78.632-.78 1.146 0 .513.9 1.055 1.336.99z" id="Oval-8" fill="#34495E"/><path d="M146.258 18.22s-1.248 5.406-4.05 5.164M170.872 18.06s2 3.275 3.306 2.976c1.208-.277 3.22-1.28 3.22-1.28" id="Line" stroke="#34495E" stroke-linecap="round" stroke-linejoin="round"/><ellipse id="Oval-9" fill="#34495E" cx="141.505" cy="23.252" rx="2.219" ry=".869"/><ellipse id="Oval-12" fill="#34495E" cx="177.743" cy="19.341" rx="1.479" ry=".869"/><path d="M159.58 27.593c8.262 0 17.855.432 15.945-6.265C173.615 14.63 167.998 5 162.002 5c-5.996 0-13.944 8.466-15.966 14.22-2.022 5.752 5.283 8.373 13.544 8.373z" id="Oval-15" stroke="#34495E"/></g><path d="M46.327 48.973c-2.86 2.134-6.82 4.562-9.686 7.308-2.447 2.346-4.35 7.194-6.702 9.773-1.046 1.147-2.03 6.427-2.99 7.588-1.043 1.264 1.494-3.868-1.178 6.047-1.16 4.304-1.68 9.58-.594 13.402 1.417 4.98 4.762 7.964 4.762 7.964s7.432 4.92 9.263 4.92c5.46 0 14.835 3.405 20.762 2.99 8.46-.59 16.903-.582 23.478-2.237 2.3-.58 9.32-3.054 10.948-6.76 1.314-2.992 5.183-8.05 3.954-11.303-.916-2.426-1.285-12.038-2.23-13.605-1.485-2.463-4.323-10.206-9.045-16.426-3.512-4.627-9.3-8.28-9.793-8.982-.83-1.18-4.913-3.032-8.916-3.946-2.53-.577-4.877-.404-6.822-.642-3.533-.43-11.79 1.357-15.21 3.91z" id="Path-4" fill="#D63931"/><path d="M98.336 87.763c-.864-1.31.718-3.836-.555-5.296-1.083-1.244.306-3.504-1.07-4.657-1.494-1.254-.006-3.632-1.48-3.79-3.87-.41-2.16 5.24-3.43 6.515-.75.75-3.275 1.9-3.275 2.916 0 2.977-2.687 5.338-3.34 5.9-1.197 1.028-1.67 6.164-3.096 7.033-1.593.97-7.345 4.937-9.1 5.603-.72.273-7.294 3.25-11.733 3.805-6.3.79-16.44.356-17.784.575-4.424.723 8.387 2.695 21.063 2.634 8.03-.04 14.787-.574 19.752-2.337 3.428-1.216 6.017-2.548 7.878-3.918.7-.513 5.615-7.91 5.615-7.91s1.335-5.89.556-7.072z" id="Path-7" fill="#C0342D"/><path d="M43.352 54.397a28.035 28.035 0 0 0-5.01 5.534c-2.762 4.062-4.795 9.568-5.764 10.697-3.633 4.23-3.998 3.282-3.998 3.282s1.2-3.89 3.07-7.46c1.64-3.123 3.91-5.918 4.79-6.737 1.127-1.046 3.86-4.483 6.252-6.18 1.6-1.134 5.442-3.76 7.034-4.396 1.04-.415 4.686-1.826 3.68-.727-.328.36-2.414.836-4.302 2.036-1.32.838-3.747 2.272-5.752 3.95z" id="Path-11" fill="#F6F6F6"/><path d="M76.58 108.002s.195-.235 2 3.906c1.805 4.14 2 12.092 2 12.092M52.555 109.217s.45-.487-.774 3.618c-1.223 4.106-4.457 9.505-4.457 9.505" id="Line" stroke="#34495E" stroke-linecap="round" stroke-linejoin="round"/><path d="M51.564 124.962c2.693 0 4.016.268 4.016-.628 0-.897-1.808-2.313-4.5-2.313s-4.5-.206-4.5.69c0 .897 2.292 2.252 4.984 2.252z" id="Oval-5" fill="#34495E"/><path d="M84.405 125.97c.84 0 2.03.13 2.71-.147.585-.237.653-.934 0-1.534-.65-.602-1.22-.695-2.71-.966-1.747-.318-2.915-.4-3.992-.255-.81.108-.833.706-.833 1.006 0 .698 3.267 1.894 4.825 1.894z" id="Oval-6" fill="#34495E"/><path d="M96.278 76s-.018 1.52 11.3 4.914c11.317 3.395 5.74 7.48 5.74 7.48M25.58 80s-2.61 6.052-4.35 8.585c-1.946 2.833-2.475 6.924-2.475 6.924" id="Line" stroke="#34495E" stroke-linecap="round" stroke-linejoin="round"/><circle id="Oval-9" fill="#34495E" cx="117.08" cy="87.5" r="1.5"/><ellipse id="Oval-10" fill="#34495E" cx="114.58" cy="88" rx="4" ry="3"/><ellipse id="Oval-11" fill="#34495E" cx="19.58" cy="97.5" rx="4" ry="2.5"/><path d="M60.9 108.955c38.596 1.06 38.92-16.687 35.137-30.827C92.254 63.988 80.307 45 60.9 45c-19.405 0-32.233 17.924-35.136 33.128-2.903 15.204-3.46 29.765 35.136 30.827z" id="Oval-14" stroke="#34495E"/><g id="Group-3"><path d="M87.04 74.842C80.25 80.598 69.504 83.3 59.35 84.15c1.785 8.5 8.94 14.704 16.613 14.1 8.135-.643 13.768-8.694 12.582-17.983a19.623 19.623 0 0 0-1.508-5.425" id="Fill-249" fill="#FFF"/><path d="M86.678 74.908c.495 1.015.934 2.06 1.246 3.16l.24.828.166.826.083.413c.014.074.028.125.04.218l.026.213.1.85c.026.285.082.568.083.855l.025.86c0 .286.03.575.008.86l-.06.862c-.02.577-.123 1.144-.217 1.714-.072.575-.24 1.13-.386 1.69-.307 1.118-.753 2.197-1.282 3.238-.273.515-.602 1.002-.902 1.503-.36.462-.693.95-1.082 1.388l-.603.646-.306.32-.338.287-.676.572c-.22.195-.483.34-.723.513-.247.163-.486.338-.74.49l-.79.41c-.514.298-1.088.467-1.64.684-.27.117-.572.177-.865.252l-.883.214c-.288.055-.563.076-.845.116l-.42.053-.21.027-.14.016-.112.002c-1.18.036-2.368 0-3.517-.258-.286-.064-.576-.112-.86-.19l-.837-.265-.418-.134c-.138-.048-.27-.114-.404-.17l-.8-.352c-.526-.25-1.025-.553-1.526-.842l-.714-.495c-.237-.164-.48-.323-.694-.516-.44-.374-.9-.722-1.294-1.14l-.613-.604c-.198-.207-.377-.432-.565-.647-.183-.22-.38-.428-.55-.656l-.502-.693c-.355-.447-.635-.944-.94-1.424l-.223-.362-.198-.377-.397-.752c-.264-.503-.454-1.04-.695-1.553-.21-.526-.38-1.067-.573-1.6l-.453-1.642-.068-.245.275-.03c.614-.068 1.226-.152 1.837-.23l1.828-.278 1.82-.32c.604-.11 1.206-.24 1.81-.36l1.798-.394c.6-.124 1.192-.29 1.792-.42.6-.13 1.186-.306 1.78-.453.598-.14 1.18-.325 1.77-.488.593-.158 1.17-.362 1.753-.547.588-.174 1.158-.393 1.736-.595.58-.193 1.14-.44 1.71-.66.575-.213 1.124-.48 1.685-.725.564-.237 1.098-.533 1.65-.796.557-.26 1.07-.59 1.615-.877.537-.295 1.035-.643 1.564-.957.512-.34 1.013-.706 1.524-1.053l.062-.043.032.066m-.085.13c-.438.394-.863.798-1.32 1.172-.492.376-.978.776-1.494 1.126l-.777.52c-.258.176-.52.345-.79.498-.542.31-1.068.653-1.63.922-.558.28-1.106.584-1.678.832-.57.255-1.136.522-1.72.743-.582.227-1.157.473-1.75.67-.592.198-1.178.416-1.778.588-.598.176-1.19.375-1.796.527-.604.15-1.205.323-1.815.45-.61.135-1.218.273-1.83.38-.615.108-1.227.224-1.845.305-.617.082-1.233.174-1.85.246l-1.855.2-1.857.156c-.62.04-1.24.073-1.858.122l.207-.275c.128.538.242 1.083.38 1.62.182.526.34 1.06.54 1.58l.33.766c.117.253.215.514.357.754l.397.734.2.367.23.35c.314.46.6.938.963 1.362l.524.647c.178.21.38.404.57.607.194.198.378.405.58.595l.622.55c.398.383.866.685 1.305 1.017.216.17.457.307.692.45l.706.427c.24.13.492.242.737.364.25.114.483.26.744.348l.765.292c.127.046.252.102.383.14l.393.11.786.222c.264.063.534.096.8.146 1.067.21 2.157.217 3.233.16l.1-.004-.013.002a.534.534 0 0 1-.007 0l.013-.002.026-.004.053-.008.21-.03.42-.064c.275-.045.565-.075.83-.133l.758-.21c.252-.073.506-.125.754-.24.492-.21 1.008-.37 1.466-.653l.71-.377c.23-.138.445-.3.668-.446.217-.16.455-.287.655-.468l.61-.523.307-.26.28-.292.56-.578c.365-.395.676-.838 1.02-1.254.283-.458.596-.9.86-1.372.516-.948.974-1.936 1.3-2.974.15-.523.34-1.036.432-1.574.114-.534.24-1.067.287-1.612l.1-.816c.042-.272.032-.547.05-.82l.034-.825c.02-.275-.017-.55-.023-.825l-.04-.827-.008-.206c-.004-.046-.017-.133-.025-.197l-.054-.418-.106-.836-.155-.81c-.19-1.062-.528-2.1-.877-3.135" id="Fill-250" fill="#303138"/><path d="M76.534 97.58c5.39-5.224 6.548-12.377 5.132-19.11.168-.1.336-.198.506-.293.278-.154.547-.325.812-.5l.795-.525c.527-.352 1.026-.754 1.53-1.133.468-.377.904-.783 1.352-1.178l.003.007c.358 1.037.702 2.08.896 3.144l.16.816.11.84.055.42c.008.065.022.152.024.2l.01.207.04.832c.005.276.042.552.024.83l-.036.828c-.018.276-.008.552-.05.825l-.104.82c-.046.55-.177 1.086-.295 1.623-.095.54-.29 1.058-.445 1.583-.333 1.043-.802 2.037-1.332 2.99-.27.476-.59.92-.88 1.382-.353.418-.67.863-1.045 1.26l-.576.582-.286.293-.314.262-.627.524c-.205.182-.45.31-.67.47-.23.148-.45.31-.686.45l-.73.378c-.47.285-.998.445-1.503.657-.253.115-.514.167-.773.24l-.777.21c-.104.024-.213.042-.323.06" id="Fill-251"/><path d="M76.534 98.29c.213-.193.42-.388.62-.587.11-.017.215-.035.318-.057l.764-.213c.255-.072.512-.125.76-.24.498-.214 1.02-.374 1.48-.66l.717-.38c.23-.14.45-.3.674-.45.218-.16.46-.29.66-.47l.617-.528.31-.262.28-.294.568-.584c.367-.4.68-.845 1.026-1.265.286-.46.602-.907.867-1.383.522-.957.984-1.953 1.31-3 .154-.527.345-1.045.438-1.588.116-.54.245-1.077.29-1.627l.103-.823c.04-.274.03-.55.05-.827l.034-.832c.018-.277-.02-.553-.025-.83l-.04-.835-.01-.21c0-.046-.015-.133-.023-.198l-.054-.42-.108-.844-.156-.818c-.192-1.067-.53-2.112-.882-3.154a19.884 19.884 0 0 1 1.475 5.705c.94 8.948-4.352 16.658-12.063 17.674m5.67-19.75c-.025-.118-.05-.237-.077-.356 1.81-.978 3.482-2.087 4.966-3.342.01.02.018.042.026.062-.44.397-.87.804-1.33 1.18-.497.38-.988.784-1.507 1.136l-.783.526c-.26.176-.525.347-.798.502-.168.095-.333.194-.5.293" id="Fill-253"/><path d="M45.322 84.146c-3.875-.67-7.473-2.684-10.814-5.04-.03.223-.06.447-.083.674-.97 9.175 3.64 17.125 10.298 17.76 6.144.583 11.585-5.27 13.197-13.386-4.592.332-7.403.893-12.598-.008" id="Fill-255" fill="#FFF"/><path d="M45.25 84.29c.526.078 1.052.16 1.58.22.53.064 1.06.1 1.59.126.532.033 1.064.03 1.595.02.53-.005 1.06-.04 1.588-.082 1.058-.084 2.11-.22 3.165-.365.528-.077 1.058-.14 1.59-.207.53-.068 1.063-.123 1.597-.174l.68-.068-.117.69a21.4 21.4 0 0 1-.668 2.738c-.282.9-.608 1.788-1.015 2.643-.8 1.718-1.857 3.333-3.186 4.723a14.164 14.164 0 0 1-2.195 1.884c-.8.55-1.68.995-2.603 1.32a9.205 9.205 0 0 1-2.88.525c-.242.014-.497-.01-.743-.013-.245-.02-.456-.036-.717-.072a9.753 9.753 0 0 1-1.42-.31 9.796 9.796 0 0 1-2.595-1.213c-.802-.512-1.516-1.14-2.165-1.82-1.29-1.37-2.28-2.98-3.054-4.68-.776-1.705-1.266-3.53-1.535-5.387-.12-.93-.182-1.868-.16-2.806 0-.464.024-.95.065-1.41l.07-.685.205-1.495.645.47c.405.296.808.596 1.217.885l1.233.863c.83.565 1.683 1.097 2.562 1.587.44.246.89.475 1.345.69l.69.313c.233.098.47.185.706.28l.715.252c.24.08.485.148.728.22l.736.18.748.154m-.02.106l-.752-.14-.747-.175-.74-.197-.733-.218c-.486-.16-.97-.325-1.45-.502a39.72 39.72 0 0 1-1.423-.576 32.476 32.476 0 0 1-2.755-1.36c-.448-.25-.897-.5-1.33-.77-.433-.272-.865-.545-1.29-.83l.755-.32-.074.664-.05.688c-.02.457-.058.888-.06 1.343-.015.9-.003 1.8.08 2.697.128 1.794.47 3.587 1.095 5.293.618 1.706 1.557 3.318 2.83 4.636.633.66 1.35 1.24 2.136 1.706a9.26 9.26 0 0 0 2.525 1.01c.44.108.89.165 1.34.202.203.014.462.018.685.022.222-.014.437-.007.66-.035.892-.087 1.772-.277 2.597-.614 1.654-.667 3.114-1.762 4.308-3.088.6-.662 1.138-1.38 1.618-2.134.482-.753.92-1.536 1.297-2.35.373-.813.716-1.643 1-2.495.285-.853.516-1.723.72-2.6l.564.623-1.593.08c-.53.024-1.064.056-1.598.072a56.06 56.06 0 0 1-3.224.04 36.342 36.342 0 0 1-3.214-.21c-.534-.05-1.063-.133-1.592-.204-.53-.07-1.057-.163-1.583-.254" id="Fill-256" fill="#303138"/><path d="M43.602 97.58a7.054 7.054 0 0 1-.988-.178 8.532 8.532 0 0 1-2.093-.834c-1.97-1.268-3.63-3.31-4.793-5.846a15.38 15.38 0 0 1-.3-.804c-.6-1.738-.927-3.562-1.05-5.39-.08-.912-.09-1.83-.076-2.744.002-.463.04-.902.06-1.367l.04-.6.592.395c.415.276.845.53 1.274.784a30.456 30.456 0 0 0 2.71 1.415c-.15 5.522 1.167 10.99 4.626 15.17" id="Fill-257"/><path d="M44.318 97.58a9.108 9.108 0 0 1-3.367-1.294c.67.363 1.38.64 2.11.818.327.083.66.136.996.174.086.1.173.2.262.3m-8.197-7.023c-1.434-3.045-2.118-6.82-1.706-10.824.02-.21.048-.417.075-.625 1.603 1.166 3.21 2.312 4.907 3.22 0 .028 0 .055-.002.082l-.068-.03a30.997 30.997 0 0 1-2.664-1.358c-.43-.25-.865-.498-1.283-.77-.2-.128-.398-.257-.596-.388l-.042.59c-.02.456-.057.886-.058 1.34-.015.897-.003 1.796.076 2.69.124 1.792.455 3.58 1.06 5.285.092.265.193.528.3.788" id="Fill-259"/><path d="M73.67 85.5a2.14 2.14 0 0 1-2.147 2.132 2.14 2.14 0 0 1-2.148-2.132 2.14 2.14 0 0 1 2.148-2.132A2.14 2.14 0 0 1 73.67 85.5" id="Fill-261" fill="#00987F"/><path d="M71.523 84.79c0 .392-.32.71-.716.71a.713.713 0 0 1-.716-.71c0-.393.32-.71.717-.71.395 0 .716.317.716.71" id="Fill-262" fill="#FFF"/><path d="M53.625 86.92a2.14 2.14 0 0 1-2.148 2.133 2.14 2.14 0 0 1-2.147-2.132c0-1.176.96-2.13 2.147-2.13a2.14 2.14 0 0 1 2.148 2.13" id="Fill-263" fill="#00987F"/><path d="M51.477 85.5c0 .393-.32.71-.716.71a.713.713 0 0 1-.715-.71c0-.393.32-.71.716-.71.397 0 .717.317.717.71" id="Fill-264" fill="#FFF"/><path d="M58.798 78.114s-.363 4.692 0 6.107c0 0 3.29 2.854 11.854.037 8.564-2.816 15.08-6.61 16.86-6.143C89.29 78.582 93 79.332 93 79.332L85.28 72S64.03 82.89 60.354 82.227c0 0-.8-.272-1.555-4.113" id="Fill-265" fill="#303138"/><path d="M57.97 78.946s.854 4.03.63 5.015c-.226.986-7.546 2.23-12.328 1.077-4.782-1.152-12.827-6.03-12.827-6.03L30 80.576l5.314-7.154s22.15 14.82 22.655 5.526" id="Fill-266" fill="#303138"/></g><g id="Group-5" transform="translate(116 138)"><path d="M18.496 1.776c-1.498.954-3.57 2.04-5.072 3.267-1.28 1.05-2.277 3.216-3.51 4.37-.546.512-1.06 2.872-1.564 3.39-.546.566.782-1.728-.617 2.704-.607 1.924-.88 4.283-.31 5.99.74 2.228 2.492 3.563 2.492 3.563s3.89 2.198 4.85 2.198c2.858 0 7.766 1.523 10.87 1.338 4.43-.264 8.85-.26 12.29-1 1.206-.26 4.88-1.366 5.733-3.023.69-1.337 2.714-3.6 2.07-5.053-.48-1.084-.673-5.38-1.167-6.082-.777-1.1-2.262-4.562-4.734-7.343-1.84-2.068-4.87-3.7-5.128-4.015-.434-.527-2.572-1.356-4.668-1.764-1.324-.26-2.553-.18-3.572-.287-1.85-.194-6.172.605-7.962 1.746z" id="Path-4" fill="#F8A82D"/><path d="M28.052 25.91c-.29-.032-.56-.305-.852-.356-1.076-.187-1.643-.378-2.996-1.246-.82-.526-1.358-1.693-1.647-2.607-.187-.59-.264-1.135-.264-1.135s5.346.274 8.543.297c.607.005 2.975-.126 2.975-.126s-.068 1.35-.627 2.483c-.42.853-1.273 1.454-1.73 1.993-.365.43-1.925.57-1.925.57s-.7.21-1.476.127z" id="Path-10" fill="#E84F44"/><path d="M24.135 21.61c-.218-.078-.675-.07-.862-.176-.085-.048-.444.123-.684 0-.24-.123-.122-.375-.174-.416-.32-.253.084-.453.084-.453s2.595.17 3.893.176c2.464.015 7.418-.175 7.418-.175s.004.697-.214.87c-.204.16-.84-.146-1.192 0-.546.224-.518.34-1.465.43-.25.023-.962-.288-1.506-.256-.22.012-.608.23-.838.254-.264.03-.733-.218-.98-.192-.245.026-.762.146-.958.192-.63.147-.52-.135-1.113-.192-.166-.016-1.044.065-1.41-.063z" id="Path-9" fill="#E88B7C"/><path d="M28.052 25.883c-5.43-.626-5.76-5.318-5.76-5.318s2.1.278 5.76.278c3.66 0 5.76-.278 5.76-.278s-.33 5.945-5.76 5.318z" id="Triangle-3" stroke="#34495E" stroke-linecap="round" stroke-linejoin="round"/><path d="M45.725 19.118c-.452-.586.376-1.716-.29-2.368-.568-.556.16-1.567-.56-2.082-.783-.56-.004-1.624-.777-1.694-2.026-.184-1.13 2.343-1.795 2.912-.392.336-1.714.85-1.714 1.304 0 1.33-1.408 2.386-1.75 2.636-.626.46-.875 2.757-1.62 3.145-.834.435-3.846 2.208-4.765 2.506-.376.122-3.82 1.453-6.143 1.7-3.3.354-8.608.16-9.31.258-2.317.323 4.39 1.204 11.027 1.177 4.203-.016 7.74-.255 10.34-1.043 1.795-.544 3.15-1.14 4.125-1.75.366-.23 2.94-3.538 2.94-3.538s.698-2.634.29-3.162z" id="Path-7" fill="#F79646"/><path d="M73.153 8.062c-.683.836-2.6 1.32-3.98 2.86-1.196 1.335-1.602 1.624-3.008 3.168-2.557 2.805-1.108 2.318-3.024 4.435-.337.373-1.095 2.223-1.095 2.223s-.71 1.718-.412 3.114c.244 1.147 1.508 1.995 1.508 2.194 0 .44 3.82 2.16 3.82 2.16s2.08 1.177 5.546 1.195c2.472.014 5.697.208 8.525 0 1.896-.138 4.165.053 5.926-.158.993-.118 3.28-.657 4.536-1.33 1.574-.846 2.02-1.857 1.92-2.002-.38-.553.604-2.366-.338-3.583-1.094-1.414-1.017-4.677-2.786-6.374-.98-.94-2.058-4.928-3.332-5.61-1.23-.66-1.216-.728-2.18-1.6-.743-.675-2.208-.978-2.675-1.65-.548-.787-3.828-.844-3.828-.844s-4.626 1.198-5.12 1.802z" id="Path-6" fill-opacity=".9" fill="#738F9D"/><path d="M93.963 24.803c-.536-.884-.007-2.92-.99-3.957-1.21-1.276-.457-3.086-1.858-3.766-.377-.183-.24-1.467-.788-1.432-.856.054-.29 2.38-1.098 3.098-.524.464-.158 3.493-.183 3.76-.035.377-1.288 2.33-1.237 2.832.078.778-1.21.883-1.534 1.728-.23.598-1.705.1-1.994.674-1.264 2.513-4.5.327-5.173 1.032-.894.937-3.807-.345-5.192.14-2.228.78-2.934.532-2.934.532s1.852.12 3.198.395c1.5.304 4.617-.113 7.042 0 2.6.118 6.01-.508 8.005-.59 1.082-.045 3.59-1.51 3.59-1.51s1.51-2.332 1.143-2.937z" id="Path-8" fill-opacity=".9" fill="#A6B4B5"/><ellipse id="Oval-1" fill="#34495E" cx="20.984" cy="6.035" rx=".785" ry=".671"/><ellipse id="Oval-1" fill="#34495E" cx="31.979" cy="6.929" rx=".785" ry=".671"/><ellipse id="Oval-1" fill="#34495E" cx="73.863" cy="14.082" rx=".785" ry=".671"/><ellipse id="Oval-1" fill="#34495E" cx="82.24" cy="16.765" rx=".785" ry=".671"/><path d="M16.938 4.2a13.473 13.473 0 0 0-2.623 2.475c-1.446 1.816-2.51 4.277-3.018 4.782-1.902 1.89-2.093 1.467-2.093 1.467s.628-1.74 1.608-3.334c.858-1.397 2.046-2.646 2.508-3.012.59-.468 2.02-2.005 3.273-2.763.837-.507 2.85-1.682 3.682-1.966.544-.186 2.454-.817 1.927-.325-.172.16-1.264.373-2.252.91-.69.374-1.962 1.015-3.012 1.766z" id="Path-11" fill="#F6F6F6"/><path d="M69.958 12.496c-1.202 1.08-2.195 2.24-2.496 2.57-.564.613-2.126 2.695-2.83 3.426-1.14 1.184-1.265.81-.47-.264 1.285-1.736 2.506-3.408 3.49-4.428 1.608-1.665 3.43-3.237 4.964-4.34 1.665-1.2 2.65-1.834 2.977-1.86.328-.024-.126.483-1.43 1.5-.737.575-2.63 1.983-4.205 3.396z" id="Path-12" fill="#F2DBDF"/><path d="M34.335 28.166s.102-.105 1.047 1.746c.945 1.85 1.047 5.406 1.047 5.406M21.665 28.727s.228-.213-.356 1.616c-.586 1.83-2.2 4.212-2.2 4.212" id="Line" stroke="#34495E" stroke-linecap="round" stroke-linejoin="round"/><path d="M21.238 35.748c1.41 0 2.102.12 2.102-.28 0-.402-.946-1.035-2.356-1.035s-2.356-.093-2.356.308c0 .402 1.2 1.008 2.61 1.008z" id="Oval-5" fill="#34495E"/><path d="M38.432 36.198c.44 0 1.062.058 1.42-.066.305-.105.34-.417 0-.685-.342-.27-.64-.31-1.42-.43-.915-.144-1.526-.18-2.09-.116-.425.05-.436.318-.436.452 0 .312 1.71.846 2.526.846z" id="Oval-6" fill="#34495E"/><path d="M44.62 13.803s0 .68 5.94 2.26c5.938 1.578 4.616 2.96 4.616 2.96M7.633 15.647s-1.366 2.705-2.277 3.838c-1.02 1.266-2.435 1.527-2.435 1.527M73.602 29.506s.09 1.495.252 2.533c.198 1.256.795 3.66.795 3.66M76.873 29.506s-1.27 1.24-1.172 2.058c.19 1.545 3.137 3.307 3.137 3.307" id="Line" stroke="#34495E" stroke-linecap="round" stroke-linejoin="round"/><path d="M75.37 35.783c-.71-1.194-.72-.144-.72-.367 0-.222-.472 0-1.346 0-.874 0-1.273.4-1.273.624 0 .222 4.05.936 3.34-.257z" id="Oval-7" fill="#34495E"/><path d="M79.733 36.797c.462-.066.14-.785 0-1.02-.14-.237-.31-1.18-.59-1.18-.28 0-.83.65-.83 1.18 0 .528.958 1.086 1.42 1.02z" id="Oval-8" fill="#34495E"/><path d="M63.13 18.33s-.69.696-3.664.446c-2.976-.25-3.665.448-3.665.448M88.452 19.63s4.276 2.765 4.43 3.987c.15 1.222-3.38 3.093-3.38 3.093" id="Line" stroke="#34495E" stroke-linecap="round" stroke-linejoin="round"/><ellipse id="Oval-9" fill="#34495E" cx="55.539" cy="19" rx=".785" ry=".671"/><ellipse id="Oval-10" fill="#34495E" cx="55.277" cy="18.776" rx="2.094" ry="1.341"/><ellipse id="Oval-11" fill="#34495E" cx="2.398" cy="20.788" rx="2.094" ry="1.118"/><ellipse id="Oval-12" fill="#34495E" cx="88.785" cy="26.376" rx="1.571" ry=".894"/><path d="M26.126 28.59c20.207.476 20.376-7.458 18.396-13.78C42.542 8.49 36.285 0 26.126 0 15.966 0 9.25 8.013 7.73 14.81c-1.52 6.797-1.81 13.307 18.396 13.78z" id="Oval-14" stroke="#34495E"/><path d="M76.827 29.5c8.773 0 18.96.445 16.932-6.444C91.73 16.166 85.766 6.26 79.4 6.26c-6.368 0-14.808 8.707-16.955 14.626-2.148 5.92 5.61 8.614 14.382 8.614z" id="Oval-15" stroke="#34495E"/></g><g id="Group-4" transform="translate(210 138)"><path d="M17.145 1.776c-1.497.954-3.57 2.04-5.07 3.267-1.283 1.05-2.28 3.216-3.51 4.37-.548.512-1.063 2.872-1.566 3.39-.547.566.78-1.728-.618 2.704-.607 1.924-.88 4.283-.31 5.99.74 2.228 2.492 3.563 2.492 3.563s3.892 2.198 4.85 2.198c2.86 0 7.767 1.523 10.87 1.338 4.43-.264 8.85-.26 12.292-1 1.205-.26 4.88-1.366 5.732-3.023.688-1.337 2.713-3.6 2.07-5.053-.48-1.084-.673-5.38-1.168-6.082-.777-1.1-2.263-4.562-4.735-7.343-1.84-2.068-4.87-3.7-5.128-4.015-.434-.527-2.572-1.356-4.667-1.764-1.325-.26-2.554-.18-3.573-.287-1.85-.194-6.172.605-7.962 1.746z" id="Path-4" fill="#F8A82D"/><path d="M24.607 26.357c-.29-.032-.56-.305-.852-.356-1.076-.186-1.643-.377-2.996-1.245-.82-.526-1.36-1.693-1.648-2.607-.187-.592-.264-1.136-.264-1.136s5.346.274 8.543.297c.608.004 2.976-.127 2.976-.127s-.07 1.35-.628 2.483c-.42.854-1.274 1.455-1.73 1.994-.365.43-1.925.57-1.925.57s-.7.21-1.476.127z" id="Path-10" fill="#E84F44"/><path d="M20.69 22.056c-.218-.077-.675-.07-.862-.175-.085-.047-.444.124-.684 0-.24-.122-.12-.374-.173-.415-.318-.253.085-.453.085-.453s2.595.17 3.892.176c2.465.014 7.42-.176 7.42-.176s.002.697-.216.87c-.203.16-.84-.146-1.19 0-.547.224-.52.34-1.466.43-.25.023-.96-.288-1.505-.256-.22.013-.61.23-.84.255-.263.03-.732-.217-.98-.19-.244.025-.76.145-.957.19-.63.148-.52-.134-1.113-.19-.166-.017-1.044.064-1.41-.064z" id="Path-9" fill="#E88B7C"/><path d="M24.607 26.33c-5.43-.626-5.76-5.318-5.76-5.318s2.1.278 5.76.278c3.66 0 5.76-.278 5.76-.278s-.33 5.945-5.76 5.318z" id="Triangle-3" stroke="#34495E" stroke-linecap="round" stroke-linejoin="round"/><path d="M44.375 19.118c-.453-.586.375-1.716-.29-2.368-.57-.556.16-1.567-.56-2.082-.784-.56-.005-1.624-.777-1.694-2.026-.184-1.13 2.343-1.796 2.912-.39.336-1.714.85-1.714 1.304 0 1.33-1.407 2.386-1.748 2.636-.627.46-.876 2.757-1.622 3.145-.833.435-3.845 2.208-4.764 2.506-.376.122-3.82 1.453-6.143 1.7-3.298.354-8.606.16-9.31.258-2.316.323 4.392 1.204 11.028 1.177 4.204-.016 7.742-.255 10.342-1.043 1.794-.544 3.15-1.14 4.124-1.75.366-.23 2.94-3.538 2.94-3.538s.698-2.634.29-3.162z" id="Path-7" fill="#F79646"/><ellipse id="Oval-1" fill="#34495E" cx="17.319" cy="10.059" rx=".785" ry=".671"/><ellipse id="Oval-1" fill="#34495E" cx="34.817" cy="10.059" rx=".785" ry=".671"/><path d="M15.587 4.2a13.473 13.473 0 0 0-2.623 2.475c-1.446 1.816-2.51 4.277-3.017 4.782-1.903 1.89-2.094 1.467-2.094 1.467s.628-1.74 1.608-3.334c.86-1.397 2.048-2.646 2.51-3.012.59-.468 2.02-2.005 3.272-2.763.837-.507 2.85-1.682 3.682-1.966.544-.186 2.454-.817 1.927-.325-.17.16-1.263.373-2.25.91-.692.374-1.963 1.015-3.013 1.766z" id="Path-11" fill="#F6F6F6"/><path d="M32.984 28.166s.102-.105 1.047 1.746c.946 1.85 1.048 5.406 1.048 5.406M20.62 29.072s.227-.213-.357 1.616c-.584 1.83.36 4.565.36 4.565" id="Line" stroke="#34495E" stroke-linecap="round" stroke-linejoin="round"/><path d="M18.61 35.644c1.41 0 2.357-.153 2.357-.554 0-.4-.668-.666-2.078-.666-1.41 0-2.66.547-2.66.947 0 .402.97.274 2.38.274z" id="Oval-5" fill="#34495E"/><path d="M37.08 36.198c.44 0 1.063.058 1.42-.066.306-.105.342-.417 0-.685-.34-.27-.64-.31-1.42-.43-.914-.144-1.525-.18-2.09-.116-.424.05-.435.318-.435.452 0 .312 1.71.846 2.526.846z" id="Oval-6" fill="#34495E"/><path d="M42.828 13.832s1.603 3.116 2.535 4.344c.55.725 2.32 1.55 2.32 1.55M7.633 16.094S6.267 18.8 5.356 19.932C4.336 21.198 2.92 21.46 2.92 21.46" id="Line" stroke="#34495E" stroke-linecap="round" stroke-linejoin="round"/><ellipse id="Oval-10" fill="#34495E" cx="48.167" cy="19.671" rx="2.094" ry="1.341"/><ellipse id="Oval-11" fill="#34495E" cx="2.398" cy="21.235" rx="2.094" ry="1.118"/><path d="M24.775 28.59c20.207.476 20.376-7.458 18.396-13.78C41.19 8.49 34.936 0 24.776 0S7.9 8.013 6.38 14.81c-1.52 6.797-1.812 13.307 18.395 13.78z" id="Oval-14" stroke="#34495E"/></g><g id="Group-2" transform="translate(261 138)"><path d="M17.875 8.51c-.682.835-2.6 1.32-3.98 2.86-1.195 1.334-1.6 1.623-3.008 3.167-2.556 2.805-1.107 2.318-3.023 4.435-.338.373-1.096 2.223-1.096 2.223s-.71 1.718-.412 3.114c.244 1.146 1.508 1.994 1.508 2.193 0 .44 3.82 2.16 3.82 2.16s2.078 1.177 5.545 1.195c2.47.013 5.696.207 8.524 0 1.894-.14 4.163.052 5.925-.16.992-.117 3.28-.656 4.535-1.33 1.574-.845 2.02-1.856 1.92-2-.38-.553.604-2.367-.338-3.584-1.094-1.414-1.017-4.677-2.786-6.374-.98-.94-2.057-4.928-3.33-5.61-1.232-.66-1.217-.728-2.18-1.6-.744-.675-2.21-.978-2.676-1.65-.55-.787-3.83-.844-3.83-.844s-4.625 1.2-5.12 1.803z" id="Path-6" fill-opacity=".9" fill="#6095C9"/><path d="M38.686 25.25c-.536-.884-.008-2.92-.992-3.957-1.208-1.276-.455-3.085-1.856-3.766-.377-.183-.24-1.467-.788-1.432-.856.054-.29 2.382-1.098 3.098-.523.464-.157 3.493-.182 3.76-.036.377-1.288 2.33-1.237 2.832.078.78-1.21.883-1.534 1.728-.23.598-1.706.1-1.996.674-1.263 2.513-4.5.327-5.173 1.032-.89.936-3.804-.346-5.19.14-2.227.78-2.933.53-2.933.53s1.85.12 3.198.396c1.5.305 4.617-.112 7.042 0 2.6.12 6.01-.507 8.005-.59 1.083-.044 3.59-1.51 3.59-1.51s1.51-2.33 1.144-2.936z" id="Path-8" fill-opacity=".9" fill="#6095C9"/><ellipse id="Oval-1" fill="#34495E" cx="17.016" cy="14.976" rx=".785" ry=".671"/><ellipse id="Oval-1" fill="#34495E" cx="28.01" cy="16.318" rx=".785" ry=".671"/><path d="M14.68 12.943c-1.202 1.08-2.194 2.242-2.495 2.57-.564.613-2.127 2.695-2.83 3.426-1.14 1.183-1.265.81-.47-.265 1.285-1.736 2.506-3.408 3.49-4.428 1.607-1.665 3.43-3.237 4.964-4.34 1.663-1.198 2.648-1.834 2.976-1.86.328-.024-.126.483-1.43 1.5-.738.575-2.63 1.983-4.205 3.396z" id="Path-12" fill="#F2DBDF"/><path d="M19.372 29.953s.09 1.495.252 2.533c.198 1.257.795 3.66.795 3.66M24.084 30.4s.108 1.184.207 2c.188 1.545 1.757 3.365 1.757 3.365" id="Line" stroke="#34495E" stroke-linecap="round" stroke-linejoin="round"/><path d="M21.036 35.738c-1.21-.68-.696.236-.807.043-.112-.19-.408.236-1.165.674-.757.437-.902.983-.79 1.176.11.192 3.973-1.213 2.76-1.892z" id="Oval-7" fill="#34495E"/><path d="M26.55 37.517c.462-.066.14-.785 0-1.02-.14-.237-.31-1.18-.59-1.18-.28 0-.83.65-.83 1.18 0 .528.958 1.086 1.42 1.02z" id="Oval-8" fill="#34495E"/><path d="M7.442 20.565s-1.325 5.56-4.3 5.312M33.53 20.394s2.15 3.452 3.512 3.16c1.26-.267 3.352-1.282 3.352-1.282" id="Line" stroke="#34495E" stroke-linecap="round" stroke-linejoin="round"/><ellipse id="Oval-9" fill="#34495E" cx="2.356" cy="25.482" rx="2.356" ry=".894"/><ellipse id="Oval-12" fill="#34495E" cx="40.837" cy="21.459" rx="1.571" ry=".894"/><path d="M26.202 12.98c.294.048.66-.44.726-.853.065-.41-.164-.792-.458-.838-.295-.048-.644.342-.71.754-.064.41.147.89.442.937z" id="Oval-13" stroke="#34495E" fill="#FAA757"/><path d="M26.897 11.507s.078.506.01.73c-.06.208-.393.567-.393.567s1.054.933 1.805 1.193c.75.26 1.284.23 1.68.012.394-.22.687-.568.194-1.05-.492-.484-3.17-.705-3.17-.705s2.97.243 3.295-.044c.324-.287.747-.92-.416-1.158-1.163-.24-3.007.455-3.007.455z" id="Path-21" stroke="#34495E" stroke-linecap="round" stroke-linejoin="round" fill="#31D2FF"/><path d="M25.212 10.504c.525.492.76 1.06.76 1.06s-.202.507-.213.7c-.013.2.112.483.112.483s-.078.238-1.12.347c-1.04.108-1.796.037-2.12-.01-.59-.086-.895-.56-.84-.94.02-.126.227-.646.807-.642 1.144.008 3.058.666 3.058.666s-2.946-1.052-3.176-1.493c-.23-.44.222-1.033.962-1.09.377-.03 1.22.406 1.768.92z" id="Path-22" stroke="#34495E" stroke-linecap="round" stroke-linejoin="round" fill="#31D2FF"/><path d="M21.55 29.947c8.773 0 18.96.445 16.932-6.444-2.027-6.89-7.993-16.797-14.36-16.797-6.367 0-14.807 8.71-16.954 14.627-2.148 5.92 5.61 8.614 14.382 8.614z" id="Oval-15" stroke="#34495E"/><path d="M43.043 1.357c.29 0 .114-.413.114-.783 0-.37-.255-.574-.544-.574-.29 0-.188.47-.188.84 0 .372.328.517.618.517z" id="Oval-17" fill="#F8E4D1"/></g><g id="Group-2" transform="translate(318 79)"><path d="M17.875 8.51c-.682.835-2.6 1.32-3.98 2.86-1.195 1.334-1.6 1.623-3.008 3.167-2.556 2.805-1.107 2.318-3.023 4.435-.338.373-1.096 2.223-1.096 2.223s-.71 1.718-.412 3.114c.244 1.146 1.508 1.994 1.508 2.193 0 .44 3.82 2.16 3.82 2.16s2.078 1.177 5.545 1.195c2.47.013 5.696.207 8.524 0 1.894-.14 4.163.052 5.925-.16.992-.117 3.28-.656 4.535-1.33 1.574-.845 2.02-1.856 1.92-2-.38-.553.604-2.367-.338-3.584-1.094-1.414-1.017-4.677-2.786-6.374-.98-.94-2.057-4.928-3.33-5.61-1.232-.66-1.217-.728-2.18-1.6-.744-.675-2.21-.978-2.676-1.65-.55-.787-3.83-.844-3.83-.844s-4.625 1.2-5.12 1.803z" id="Path-6" fill-opacity=".9" fill="#6095C9"/><path d="M38.686 25.25c-.536-.884-.008-2.92-.992-3.957-1.208-1.276-.455-3.085-1.856-3.766-.377-.183-.24-1.467-.788-1.432-.856.054-.29 2.382-1.098 3.098-.523.464-.157 3.493-.182 3.76-.036.377-1.288 2.33-1.237 2.832.078.78-1.21.883-1.534 1.728-.23.598-1.706.1-1.996.674-1.263 2.513-4.5.327-5.173 1.032-.89.936-3.804-.346-5.19.14-2.227.78-2.933.53-2.933.53s1.85.12 3.198.396c1.5.305 4.617-.112 7.042 0 2.6.12 6.01-.507 8.005-.59 1.083-.044 3.59-1.51 3.59-1.51s1.51-2.33 1.144-2.936z" id="Path-8" fill-opacity=".9" fill="#6095C9"/><ellipse id="Oval-1" fill="#34495E" cx="17.016" cy="14.976" rx=".785" ry=".671"/><ellipse id="Oval-1" fill="#34495E" cx="28.01" cy="16.318" rx=".785" ry=".671"/><path d="M14.68 12.943c-1.202 1.08-2.194 2.242-2.495 2.57-.564.613-2.127 2.695-2.83 3.426-1.14 1.183-1.265.81-.47-.265 1.285-1.736 2.506-3.408 3.49-4.428 1.607-1.665 3.43-3.237 4.964-4.34 1.663-1.198 2.648-1.834 2.976-1.86.328-.024-.126.483-1.43 1.5-.738.575-2.63 1.983-4.205 3.396z" id="Path-12" fill="#F2DBDF"/><path d="M19.372 29.953s.09 1.495.252 2.533c.198 1.257.795 3.66.795 3.66M24.084 30.4s.108 1.184.207 2c.188 1.545 1.757 3.365 1.757 3.365" id="Line" stroke="#34495E" stroke-linecap="round" stroke-linejoin="round"/><path d="M21.036 35.738c-1.21-.68-.696.236-.807.043-.112-.19-.408.236-1.165.674-.757.437-.902.983-.79 1.176.11.192 3.973-1.213 2.76-1.892z" id="Oval-7" fill="#34495E"/><path d="M26.55 37.517c.462-.066.14-.785 0-1.02-.14-.237-.31-1.18-.59-1.18-.28 0-.83.65-.83 1.18 0 .528.958 1.086 1.42 1.02z" id="Oval-8" fill="#34495E"/><path d="M7.442 20.565s-1.325 5.56-4.3 5.312M33.53 20.394s2.15 3.452 3.512 3.16c1.26-.267 3.352-1.282 3.352-1.282" id="Line" stroke="#34495E" stroke-linecap="round" stroke-linejoin="round"/><ellipse id="Oval-9" fill="#34495E" cx="2.356" cy="25.482" rx="2.356" ry=".894"/><ellipse id="Oval-12" fill="#34495E" cx="40.837" cy="21.459" rx="1.571" ry=".894"/><path d="M26.202 12.98c.294.048.66-.44.726-.853.065-.41-.164-.792-.458-.838-.295-.048-.644.342-.71.754-.064.41.147.89.442.937z" id="Oval-13" stroke="#34495E" fill="#FAA757"/><path d="M26.897 11.507s.078.506.01.73c-.06.208-.393.567-.393.567s1.054.933 1.805 1.193c.75.26 1.284.23 1.68.012.394-.22.687-.568.194-1.05-.492-.484-3.17-.705-3.17-.705s2.97.243 3.295-.044c.324-.287.747-.92-.416-1.158-1.163-.24-3.007.455-3.007.455z" id="Path-21" stroke="#34495E" stroke-linecap="round" stroke-linejoin="round" fill="#31D2FF"/><path d="M25.212 10.504c.525.492.76 1.06.76 1.06s-.202.507-.213.7c-.013.2.112.483.112.483s-.078.238-1.12.347c-1.04.108-1.796.037-2.12-.01-.59-.086-.895-.56-.84-.94.02-.126.227-.646.807-.642 1.144.008 3.058.666 3.058.666s-2.946-1.052-3.176-1.493c-.23-.44.222-1.033.962-1.09.377-.03 1.22.406 1.768.92z" id="Path-22" stroke="#34495E" stroke-linecap="round" stroke-linejoin="round" fill="#31D2FF"/><path d="M21.55 29.947c8.773 0 18.96.445 16.932-6.444-2.027-6.89-7.993-16.797-14.36-16.797-6.367 0-14.807 8.71-16.954 14.627-2.148 5.92 5.61 8.614 14.382 8.614z" id="Oval-15" stroke="#34495E"/><path d="M43.043 1.357c.29 0 .114-.413.114-.783 0-.37-.255-.574-.544-.574-.29 0-.188.47-.188.84 0 .372.328.517.618.517z" id="Oval-17" fill="#F8E4D1"/></g><path d="M91.472 58.776s13.902-.393 19.802-5.68c5.9-5.286 8.055-16.065 8.055-16.065" id="Path-2" stroke="#34495E"/><text id="按顺序站好，-我要找中位数" font-family="MicrosoftYaHei, Microsoft YaHei" font-size="10" fill="#34495E"><tspan x="91" y="20">按顺序站好，</tspan> <tspan x="91" y="34">我要找中位数</tspan></text><path d="M163.562 89.32c0-.298 0-.32-.288-.32-.773.79-1.872.79-2.274.79v.39c.25 0 .99 0 1.637-.325v6.43c0 .444-.038.595-1.164.595h-.397v.384c.435-.037 1.523-.037 2.023-.037.5 0 1.582 0 2.023.037v-.384h-.403c-1.12 0-1.158-.135-1.158-.595V89.32zM207.957 105.307l1.327-1.276c1.948-1.714 2.693-2.385 2.693-3.623 0-1.417-1.12-2.407-2.644-2.407-1.408 0-2.333 1.14-2.333 2.245 0 .692.62.692.658.692.212 0 .653-.146.653-.655a.634.634 0 0 0-.663-.65c-.098 0-.125 0-.163.018.288-.806.963-1.266 1.686-1.266 1.137 0 1.675 1.006 1.675 2.023 0 .99-.625 1.974-1.31 2.742l-2.4 2.655c-.135.135-.135.162-.135.46h4.63l.347-2.16h-.31c-.06.375-.147.92-.272 1.105-.087.097-.914.097-1.186.097h-2.253zM253.223 95.894c1.023-.335 1.746-1.2 1.746-2.185 0-1.018-1.1-1.71-2.296-1.71-1.262 0-2.214.74-2.214 1.688 0 .405.277.643.636.643.392 0 .637-.27.637-.632 0-.622-.582-.622-.773-.622.387-.605 1.213-.768 1.66-.768.51 0 1.2.27 1.2 1.39 0 .146-.026.87-.352 1.417-.37.595-.794.633-1.11.644a7.91 7.91 0 0 1-.484.037c-.103.01-.19.022-.19.146 0 .14.087.14.3.14h.548c1.028 0 1.485.844 1.485 2.06 0 1.69-.86 2.046-1.41 2.046-.537 0-1.473-.212-1.908-.942.434.06.82-.21.82-.682 0-.45-.337-.698-.696-.698-.3 0-.7.173-.7.72 0 1.13 1.163 1.947 2.523 1.947 1.523 0 2.66-1.125 2.66-2.39 0-1.023-.79-1.99-2.084-2.25zM297.247 103.355v1.082c0 .45-.027.584-.952.584h-.26v.385c.51-.038 1.163-.038 1.685-.038s1.186 0 1.697.038v-.384h-.26c-.926 0-.953-.134-.953-.583v-1.082h1.25v-.384h-1.25v-5.645c0-.25 0-.325-.196-.325-.114 0-.152 0-.25.15l-3.834 5.82v.385h3.323zm.07-.384h-3.04l3.04-4.63v4.63zM342.977 103.77c0-1.476-1.023-2.72-2.372-2.72-.598 0-1.13.2-1.582.633v-2.417c.25.07.663.156 1.06.156 1.534 0 2.41-1.125 2.41-1.287 0-.076-.038-.135-.125-.135-.01 0-.038 0-.098.032-.25.114-.865.363-1.697.363-.5 0-1.077-.087-1.665-.346-.098-.04-.125-.04-.147-.04-.124 0-.124.098-.124.298v3.673c0 .228 0 .325.174.325.087 0 .115-.038.164-.113.136-.195.598-.866 1.61-.866.647 0 .962.568 1.06.79.2.46.223.947.223 1.568 0 .433 0 1.18-.3 1.7-.298.486-.76.805-1.332.805-.913 0-1.626-.656-1.838-1.39.038.01.076.026.212.026a.6.6 0 0 0 .625-.61.596.596 0 0 0-.626-.607c-.175 0-.61.085-.61.66 0 1.064.86 2.265 2.257 2.265 1.447 0 2.72-1.19 2.72-2.764zM143.562 147.32c0-.298 0-.32-.288-.32-.773.79-1.872.79-2.274.79v.39c.25 0 .99 0 1.637-.325v6.43c0 .444-.038.595-1.164.595h-.397v.384c.435-.037 1.523-.037 2.023-.037.5 0 1.582 0 2.023.037v-.384h-.403c-1.12 0-1.158-.135-1.158-.595v-6.966zM190.957 164.307l1.327-1.276c1.948-1.714 2.693-2.385 2.693-3.623 0-1.417-1.12-2.407-2.644-2.407-1.408 0-2.333 1.14-2.333 2.245 0 .692.62.692.658.692.212 0 .653-.146.653-.655a.634.634 0 0 0-.663-.65c-.098 0-.125 0-.163.018.288-.806.963-1.266 1.686-1.266 1.137 0 1.675 1.006 1.675 2.023 0 .99-.625 1.974-1.31 2.742l-2.4 2.655c-.135.135-.135.162-.135.46h4.63l.347-2.16h-.31c-.06.375-.147.92-.272 1.105-.087.097-.914.097-1.186.097h-2.253zM236.1 152.894c1.023-.335 1.746-1.2 1.746-2.185 0-1.018-1.098-1.71-2.295-1.71-1.26 0-2.213.74-2.213 1.688 0 .405.278.643.637.643.39 0 .636-.27.636-.632 0-.622-.582-.622-.772-.622.386-.605 1.213-.768 1.66-.768.51 0 1.2.27 1.2 1.39 0 .146-.027.87-.353 1.417-.37.595-.794.633-1.11.644-.097.01-.397.037-.484.037-.102.01-.19.022-.19.146 0 .14.088.14.3.14h.55c1.028 0 1.484.844 1.484 2.06 0 1.69-.86 2.046-1.408 2.046-.54 0-1.474-.212-1.91-.942.436.06.822-.21.822-.682 0-.45-.337-.698-.696-.698-.3 0-.702.173-.702.72 0 1.13 1.164 1.947 2.524 1.947 1.523 0 2.66-1.125 2.66-2.39 0-1.023-.79-1.99-2.084-2.25zM283.323 162.355v1.082c0 .45-.027.584-.952.584h-.26v.385c.512-.038 1.164-.038 1.686-.038.523 0 1.186 0 1.697.038v-.384h-.26c-.925 0-.952-.134-.952-.583v-1.082h1.252v-.384h-1.25v-5.645c0-.25 0-.325-.197-.325-.114 0-.153 0-.25.15L280 161.97v.385h3.323zm.07-.384h-3.04l3.04-4.63v4.63z" id="Shape" fill="#34495E"/><path d="M252.067 80.32s-1.976-7.464-.285-12.736c1.69-5.27 3.892-8.76 3.892-8.76" id="Path-3" stroke="#34495E"/><text id="我是最中间的，-我是中位数" font-family="MicrosoftYaHei, Microsoft YaHei" font-size="10" fill="#34495E"><tspan x="229" y="41">我是最中间的，</tspan> <tspan x="229" y="55"> 我是中位数</tspan></text><path d="M190.83 175.88s-2.834 5.626-2.488 12.87c.346 7.245 3.7 12.554 3.7 12.554" id="Path-5" stroke="#34495E"/><path d="M237.572 174.948s5.086 3.826 4.688 10.578c-.398 6.752-6.1 13.378-6.1 13.378" id="Path-13" stroke="#34495E"/><text id="我们是最中间的，-我们两的平均数是中位数" font-family="MicrosoftYaHei, Microsoft YaHei" font-size="10" fill="#34495E"><tspan x="165" y="212"> 我们是最中间的，</tspan> <tspan x="165" y="226">我们两的平均数是中位数</tspan></text></g></g></svg>